{"title":"Geordie Shore S10E03 WEB-DL","uid":11861813,"size":518529515,"categoryP":"video","categoryS":"tv_shows","magnet":"?xt=urn:btih:84aa392016d4840b07333edb11358bcf8257d7b5&amp;dn=Geordie+Shore+S10E03+WEB-DL&amp;tr=udp%3A%2F%2Ftracker.openbittorrent.com%3A80&amp;tr=udp%3A%2F%2Fopen.demonii.com%3A1337&amp;tr=udp%3A%2F%2Ftracker.coppersurfer.tk%3A6969&amp;tr=udp%3A%2F%2Fexodus.desync.com%3A6969","seeders":6,"leechers":2,"uploader":"jmanwf","files":2,"time":1430298663,"description":"Released 21 April 2015\n\nIt's the Newbies first morning in the house but with Holly, Kyle and Charlotte gone how will the family get back together? Holly opens her heart to Kyle but does he feel the same? And a shock revelation from Gary leaves Charlotte heartbroken.\n\n\n\n\nVideo\nID : 2\nFormat : AVC\nFormat/Info : Advanced Video Codec\nFormat profile : &lt;a class=&quot;__cf_email__&quot; href=&quot;/cdn-cgi/l/email-protection&quot; data-cfemail=&quot;f9bb988a9c9590979cb9b5cad7c9&quot;&gt;[email&amp;#160;protected]&lt;/a&gt;&lt;script cf-hash='f9e31' type=&quot;text/javascript&quot;&gt;\n/* &lt;![CDATA[ */!function(){try{var t=&quot;currentScript&quot;in document?document.currentScript:function(){for(var t=document.getElementsByTagName(&quot;script&quot;),e=t.length;e--;)if(t[e].getAttribute(&quot;cf-hash&quot;))return t[e]}();if(t&amp;&amp;t.previousSibling){var e,r,n,i,c=t.previousSibling,a=c.getAttribute(&quot;data-cfemail&quot;);if(a){for(e=&quot;&quot;,r=parseInt(a.substr(0,2),16),n=2;a.length-n;n+=2)i=parseInt(a.substr(n,2),16)^r,e+=String.fromCharCode(i);e=document.createTextNode(e),c.parentNode.replaceChild(e,c)}}}catch(u){}}();/* ]]&gt; */&lt;/script&gt;\nFormat settings, CABAC : No\nFormat settings, ReFrames : 1 frame\nCodec ID : avc1\nCodec ID/Info : Advanced Video Coding\nDuration : 42mn 8s\nBit rate mode : Variable\nBit rate : 1 512 Kbps\nWidth : 640 pixels\nHeight : 480 pixels\nDisplay aspect ratio : 16:9\nFrame rate mode : Constant\nFrame rate : 25.000 fps\nColor space : YUV\nChroma subsampling : 4:2:0\nBit depth : 8 bits\nScan type : Progressive\nBits/(Pixel*Frame) : 0.197\nStream size : 456 MiB (92%)\nLanguage : English\nEncoded date : UTC 2015-04-27 08:58:43\nTagged date : UTC 2015-04-27 09:01:37\nColor primaries : BT.601-6 525, BT.1358 525, BT.1700 NTSC, SMPTE 170M\nTransfer characteristics : BT.709-5, BT.1361\nMatrix coefficients : BT.601-6 525, BT.1358 525, BT.1700 NTSC, SMPTE 170M\n\nAudio\nID : 1\nFormat : AAC\nFormat/Info : Advanced Audio Codec\nFormat profile : LC\nCodec ID : 40\nDuration : 42mn 8s\nDuration_LastFrame : -23ms\nBit rate mode : Variable\nBit rate : 125 Kbps\nMaximum bit rate : 194 Kbps\nChannel(s) : 2 channels\nChannel positions : Front: L R\nSampling rate : 44.1 KHz\nCompression mode : Lossy\nStream size : 37.8 MiB (8%)\nLanguage : English\nEncoded date : UTC 2015-04-27 08:58:43\nTagged date : UTC 2015-04-27 09:01:37\n\n\n &lt;a href=&quot;\nhttps://itunes.apple.com/gb/tv-season/geordie-shore-season-10/id979550691&quot; rel=&quot;nofollow&quot; target=&quot;_NEW&quot;&gt;\nhttps://itunes.apple.com/gb/tv-season/geordie-shore-season-10/id979550691&lt;/a&gt;","torrent":{"xt":"urn:btih:84aa392016d4840b07333edb11358bcf8257d7b5","amp;dn":"Geordie+Shore+S10E03+WEB-DL","amp;tr":["udp%3A%2F%2Ftracker.openbittorrent.com%3A80","udp%3A%2F%2Fopen.demonii.com%3A1337","udp%3A%2F%2Ftracker.coppersurfer.tk%3A6969","udp%3A%2F%2Fexodus.desync.com%3A6969"],"infoHash":"84aa392016d4840b07333edb11358bcf8257d7b5","infoHashBuffer":{"type":"Buffer","data":[132,170,57,32,22,212,132,11,7,51,62,219,17,53,139,207,130,87,215,181]},"announce":[],"urlList":[]}}